<svg width="25" height="25" fill="none" xmlns="http://www.w3.org/2000/svg"><circle cx="12.5" cy="12.5" r="12.5" fill="red"/><path fill-rule="evenodd" clip-rule="evenodd" d="M19.142 7.349a2.11 2.11 0 011.503 1.476C21 10.127 21 12.844 21 12.844s0 2.716-.355 4.019a2.11 2.11 0 01-1.503 1.476c-1.326.349-6.642.349-6.642.349s-5.316 0-6.642-.35a2.11 2.11 0 01-1.503-1.475C4 15.56 4 12.843 4 12.843s0-2.716.355-4.018a2.11 2.11 0 011.503-1.476C7.184 7 12.5 7 12.5 7s5.316 0 6.642.349zm-3.937 5.495l-4.443 2.466v-4.933l4.443 2.467z" fill="#fff"/></svg>