<svg width="25" height="25" fill="none" xmlns="http://www.w3.org/2000/svg"><circle cx="12.5" cy="12.5" r="12.5" fill="#fff"/><path fill-rule="evenodd" clip-rule="evenodd" d="M14.019 24.909C20.206 24.159 25 18.889 25 12.5 25 5.596 19.404 0 12.5 0S0 5.596 0 12.5c0 6.097 4.365 11.174 10.14 12.278V16.143H7v-3.586h3.14v-.132-.821c-.002-.639-.003-1.278.002-1.916.007-.901.176-1.767.619-2.563.596-1.071 1.525-1.695 2.702-1.975.6-.144 1.21-.167 1.823-.14.743.03 1.482.105 2.217.218.064.01.095.026.095.101-.002.772-.002 1.543-.002 2.315v.578a.386.386 0 01-.003.042l-.003.036h-.626c-.384-.001-.77-.002-1.153.01-.452.016-.875.14-1.222.449-.38.338-.549.782-.56 1.274a64.332 64.332 0 00-.01 1.751v.706c0 .011.003.022.006.037a.704.704 0 01.004.024h3.423l-.03.208-.064.416-.098.64c-.11.726-.222 1.452-.335 2.177-.013.086-.012.123-.03.138-.016.015-.052.01-.136.01h-2.734c0 .014-.002.027-.003.04l-.003.069v8.66zM12.533 25h-.068.068z" fill="#1877F2"/></svg>